<svg
width="85.5026455026455"
height="32"
viewBox="0 0 1010 378"
fill="none"
className="bg-zinc-500"
xmlns="http://www.w3.org/2000/svg"
>
<rect width="1010" height="378" />
<path
  d="M304.78 133.8C313.58 133.8 321.06 135.12 327.22 137.76C333.527 140.253 338.807 143.847 343.06 148.54C347.313 153.233 350.54 158.587 352.74 164.6L330.52 173.4C328.613 166.653 325.533 161.52 321.28 158C317.173 154.333 311.747 152.5 305 152.5C298.4 152.5 292.753 154.04 288.06 157.12C283.367 160.053 279.773 164.38 277.28 170.1C274.933 175.82 273.76 182.86 273.76 191.22C273.76 199.433 275.007 206.4 277.5 212.12C279.993 217.84 283.587 222.167 288.28 225.1C292.973 228.033 298.547 229.5 305 229.5C309.987 229.5 314.313 228.693 317.98 227.08C321.647 225.32 324.653 222.9 327 219.82C329.493 216.593 331.18 212.707 332.06 208.16L353.4 215.42C351.347 222.02 348.12 227.813 343.72 232.8C339.467 237.64 334.113 241.453 327.66 244.24C321.207 246.88 313.8 248.2 305.44 248.2C294.587 248.2 284.98 245.927 276.62 241.38C268.26 236.833 261.733 230.307 257.04 221.8C252.493 213.147 250.22 202.88 250.22 191C250.22 179.12 252.493 168.927 257.04 160.42C261.733 151.767 268.187 145.167 276.4 140.62C284.76 136.073 294.22 133.8 304.78 133.8ZM428.535 133.8C439.242 133.8 448.702 136.073 456.915 140.62C465.128 145.167 471.508 151.767 476.055 160.42C480.748 168.927 483.095 179.12 483.095 191C483.095 202.88 480.748 213.147 476.055 221.8C471.508 230.307 465.128 236.833 456.915 241.38C448.702 245.927 439.242 248.2 428.535 248.2C417.828 248.2 408.368 245.927 400.155 241.38C391.942 236.833 385.488 230.307 380.795 221.8C376.102 213.147 373.755 202.88 373.755 191C373.755 179.12 376.102 168.927 380.795 160.42C385.488 151.767 391.942 145.167 400.155 140.62C408.368 136.073 417.828 133.8 428.535 133.8ZM428.535 152.28C421.935 152.28 416.288 153.82 411.595 156.9C407.048 159.833 403.528 164.16 401.035 169.88C398.542 175.6 397.295 182.64 397.295 191C397.295 199.213 398.542 206.253 401.035 212.12C403.528 217.84 407.048 222.24 411.595 225.32C416.288 228.253 421.935 229.72 428.535 229.72C435.135 229.72 440.708 228.253 445.255 225.32C449.802 222.24 453.322 217.84 455.815 212.12C458.308 206.253 459.555 199.213 459.555 191C459.555 182.64 458.308 175.6 455.815 169.88C453.322 164.16 449.802 159.833 445.255 156.9C440.708 153.82 435.135 152.28 428.535 152.28ZM609.08 112.9L612.82 131.38C612.38 131.38 611.94 131.38 611.5 131.38C611.06 131.233 610.62 131.16 610.18 131.16C603.14 131.16 597.786 132.7 594.12 135.78C590.453 138.713 588.62 143.04 588.62 148.76L577.18 143.48C577.18 137.613 578.426 132.407 580.92 127.86C583.413 123.167 586.933 119.5 591.48 116.86C596.173 114.22 601.453 112.9 607.32 112.9C607.613 112.9 607.906 112.9 608.2 112.9C608.493 112.9 608.786 112.9 609.08 112.9ZM574.32 228.84C585.466 228.84 594.12 231.333 600.28 236.32C606.44 241.16 609.52 247.907 609.52 256.56C609.52 264.187 607.1 270.713 602.26 276.14C597.42 281.713 590.82 285.967 582.46 288.9C574.246 291.833 564.786 293.3 554.08 293.3C536.04 293.3 522.693 290.513 514.04 284.94C505.386 279.367 501.06 272.4 501.06 264.04C501.06 258.173 503.113 253.04 507.22 248.64C511.473 244.24 518.586 241.747 528.56 241.16L527.24 244.68C521.08 243.36 516.093 241.013 512.28 237.64C508.613 234.12 506.78 229.207 506.78 222.9C506.78 216.593 509.2 211.24 514.04 206.84C518.88 202.44 525.7 199.873 534.5 199.14L546.82 205.08H544.18C537.433 205.667 532.666 207.207 529.88 209.7C527.093 212.193 525.7 214.98 525.7 218.06C525.7 221.727 527.02 224.44 529.66 226.2C532.446 227.96 536.333 228.84 541.32 228.84H574.32ZM554.08 275.7C562.146 275.7 568.746 274.893 573.88 273.28C579.16 271.813 583.046 269.833 585.54 267.34C588.18 264.993 589.5 262.353 589.5 259.42C589.5 256.047 588.106 253.333 585.32 251.28C582.68 249.227 577.84 248.2 570.8 248.2H535.38C531.273 248.2 527.826 249.227 525.04 251.28C522.253 253.48 520.86 256.413 520.86 260.08C520.86 264.92 523.793 268.733 529.66 271.52C535.526 274.307 543.666 275.7 554.08 275.7ZM553.2 133.8C562.88 133.8 571.24 135.34 578.28 138.42C585.466 141.5 590.966 145.827 594.78 151.4C598.74 156.973 600.72 163.5 600.72 170.98C600.72 178.46 598.74 184.987 594.78 190.56C590.966 196.133 585.466 200.46 578.28 203.54C571.24 206.62 562.88 208.16 553.2 208.16C537.946 208.16 526.213 204.787 518 198.04C509.933 191.147 505.9 182.127 505.9 170.98C505.9 163.5 507.88 156.973 511.84 151.4C515.8 145.827 521.3 141.5 528.34 138.42C535.526 135.34 543.813 133.8 553.2 133.8ZM553.2 150.3C546.453 150.3 540.806 152.207 536.26 156.02C531.86 159.687 529.66 164.673 529.66 170.98C529.66 177.287 531.86 182.347 536.26 186.16C540.806 189.973 546.453 191.88 553.2 191.88C560.093 191.88 565.74 189.973 570.14 186.16C574.686 182.347 576.96 177.287 576.96 170.98C576.96 164.673 574.686 159.687 570.14 156.02C565.74 152.207 560.093 150.3 553.2 150.3ZM642.968 117.52C637.835 117.52 633.875 116.273 631.088 113.78C628.448 111.14 627.128 107.473 627.128 102.78C627.128 98.0867 628.448 94.4933 631.088 92C633.875 89.5067 637.835 88.26 642.968 88.26C647.955 88.26 651.768 89.5067 654.408 92C657.195 94.4933 658.588 98.0867 658.588 102.78C658.588 107.473 657.195 111.14 654.408 113.78C651.768 116.273 647.955 117.52 642.968 117.52ZM654.628 136V246H631.088V136H654.628ZM723.579 103.66V213C723.579 218.427 724.973 222.387 727.759 224.88C730.693 227.373 734.579 228.62 739.419 228.62C743.379 228.62 746.826 228.033 749.759 226.86C752.693 225.54 755.406 223.78 757.899 221.58L763.179 238.74C759.806 241.673 755.626 244.02 750.639 245.78C745.799 247.393 740.373 248.2 734.359 248.2C728.053 248.2 722.259 247.173 716.979 245.12C711.699 243.067 707.593 239.767 704.659 235.22C701.726 230.527 700.186 224.44 700.039 216.96V110.26L723.579 103.66ZM761.419 136V154.48H678.919V136H761.419ZM848.926 175.38C848.926 168.047 846.873 162.4 842.766 158.44C838.806 154.333 833.306 152.28 826.266 152.28C819.666 152.28 814.019 153.82 809.326 156.9C804.633 159.98 801.186 164.967 798.986 171.86L779.186 163.5C781.973 154.553 787.399 147.367 795.466 141.94C803.679 136.513 814.239 133.8 827.146 133.8C835.946 133.8 843.719 135.267 850.466 138.2C857.213 140.987 862.493 145.24 866.306 150.96C870.266 156.68 872.246 164.013 872.246 172.96V222.02C872.246 227.447 874.959 230.16 880.386 230.16C883.026 230.16 885.593 229.793 888.086 229.06L886.766 245.34C883.393 246.953 879.139 247.76 874.006 247.76C869.313 247.76 865.059 246.953 861.246 245.34C857.579 243.58 854.646 241.013 852.446 237.64C850.393 234.12 849.366 229.793 849.366 224.66V223.12L854.206 222.9C852.886 228.62 850.173 233.387 846.066 237.2C841.959 240.867 837.193 243.653 831.766 245.56C826.339 247.32 820.839 248.2 815.266 248.2C808.373 248.2 802.139 247.1 796.566 244.9C791.139 242.7 786.813 239.4 783.586 235C780.506 230.453 778.966 224.88 778.966 218.28C778.966 210.067 781.606 203.32 786.886 198.04C792.313 192.76 799.939 189.167 809.766 187.26L852.446 178.9L852.226 195.4L821.206 201.78C815.046 202.953 810.426 204.64 807.346 206.84C804.266 209.04 802.726 212.267 802.726 216.52C802.726 220.627 804.266 223.927 807.346 226.42C810.573 228.767 814.826 229.94 820.106 229.94C823.773 229.94 827.293 229.5 830.666 228.62C834.186 227.74 837.339 226.347 840.126 224.44C842.913 222.387 845.039 219.82 846.506 216.74C848.119 213.513 848.926 209.7 848.926 205.3V175.38Z"
  fill="white"
/>
<path
  d="M208 119L230.5 118L179 255L157 255L208 119Z"
  fill="white"
/>
<path
  d="M130.093 228C134.296 228 137.634 229.241 140.106 231.724C142.702 234.083 144 237.31 144 241.407C144 245.503 142.702 248.793 140.106 251.276C137.634 253.759 134.296 255 130.093 255C125.766 255 122.305 253.759 119.709 251.276C117.236 248.793 116 245.503 116 241.407C116 237.31 117.236 234.083 119.709 231.724C122.305 229.241 125.766 228 130.093 228Z"
  fill="white"
/>
<path
  d="M643.04 117.56C637.907 117.56 633.947 116.313 631.16 113.82C628.52 111.18 627.2 107.513 627.2 102.82C627.2 98.1267 628.52 94.5333 631.16 92.04C633.947 89.5467 637.907 88.3 643.04 88.3C648.027 88.3 651.84 89.5467 654.48 92.04C657.267 94.5333 658.66 98.1267 658.66 102.82C658.66 107.513 657.267 111.18 654.48 113.82C651.84 116.313 648.027 117.56 643.04 117.56Z"
  fill="#3FA95C"
/>
<path
  d="M887 245.5C869.483 251.218 853.932 246.127 850 232L872 220.5C872 230 877.5 231.5 888 229L887 245.5Z"
  fill="#C05555"
/>
</svg>