<?xml version="1.0" encoding="utf-8"?>
<!-- Generator: Adobe Illustrator 23.0.1, SVG Export Plug-In . SVG Version: 6.00 Build 0)  -->
<svg version="1.1"
	 id="svg855" xmlns:cc="http://creativecommons.org/ns#" xmlns:dc="http://purl.org/dc/elements/1.1/" xmlns:inkscape="http://www.inkscape.org/namespaces/inkscape" xmlns:rdf="http://www.w3.org/1999/02/22-rdf-syntax-ns#" xmlns:sodipodi="http://sodipodi.sourceforge.net/DTD/sodipodi-0.dtd" xmlns:svg="http://www.w3.org/2000/svg"
	 xmlns="http://www.w3.org/2000/svg" xmlns:xlink="http://www.w3.org/1999/xlink" x="0px" y="0px" viewBox="0 0 433 433"
	 enable-background="new 0 0 433.4 504" xml:space="preserve">
<sodipodi:namedview  bordercolor="#666666" borderopacity="1" fit-margin-bottom="5" fit-margin-left="5" fit-margin-right="5" fit-margin-top="5" gridtolerance="10" guidetolerance="10" id="namedview34" inkscape:current-layer="svg855" inkscape:cx="205.24026" inkscape:cy="243.78107" inkscape:pageopacity="0" inkscape:pageshadow="2" inkscape:window-height="1361" inkscape:window-maximized="1" inkscape:window-width="2560" inkscape:window-x="-9" inkscape:window-y="-9" inkscape:zoom="2.2725309" objecttolerance="10" pagecolor="#ffffff" showgrid="false">
	</sodipodi:namedview>
<title  id="title839">Flag of Emilia-Romagna</title>
<rect id="rect906" fill="#FFFFFF" width="433.4" height="504"/>
<g>
	<path fill="#009A49" d="M43.2,43h347v81.2c-28.7,11.2-50.8,13.4-74.5,14.1c-24,0.7-60.3-2.3-86.5-10.3
		c-26.2-7.9-61.1-15.9-98.3-16.1c-31.4-0.2-75,8.6-87.7,11.3V43z M43.2,390V216.6L379.1,390H43.2z M416.8,16.3H16.5v400.3h400.3
		V16.3z"/>
	<rect x="16.5" y="425.1" fill="#F32837" width="400.3" height="9.5"/>
	<path fill="#009A49" d="M409.7,482.3c0.7,0.6,1.7,0.8,2.8,0.8c1.5,0,2.5-0.5,3.2-1.4c0.7-0.9,1-2.5,1-4.5v-1.7h-1.9
		c0,0.2,0,0.5,0,0.8c0,0.3,0,0.6,0,0.8c0,1.1-0.1,1.8-0.2,2.2c-0.1,0.4-0.4,0.6-0.7,0.6c-0.3,0-0.5-0.1-0.6-0.2
		c-0.1-0.2-0.2-0.5-0.2-1v-14.5c0-2.8-0.6-4.8-1.9-6.2c-1.3-1.4-3.2-2-5.8-2c-2.3,0-4.2,0.6-5.7,1.9c-1.5,1.3-2.2,2.9-2.2,4.9
		c0,1.2,0.3,2.1,0.9,2.7c0.6,0.7,1.5,1,2.5,1c0.9,0,1.6-0.2,2.1-0.7c0.5-0.5,0.8-1.2,0.8-2c0-0.9-0.2-1.6-0.6-2
		c-0.4-0.5-1-0.7-1.8-0.7c-0.3,0-0.5,0-0.6,0c-0.1,0-0.3,0-0.4,0.1c0.3-0.7,0.7-1.3,1.4-1.7c0.6-0.4,1.4-0.6,2.3-0.6
		c1.2,0,2.2,0.4,2.9,1.1c0.7,0.8,1,1.8,1,3.1c0,1.1-0.3,2-0.9,2.8c-0.6,0.8-1.6,1.6-3,2.4c-0.3,0.2-0.8,0.4-1.4,0.7
		c-1.8,0.9-3.1,1.7-4,2.5c-0.6,0.6-1.1,1.3-1.4,2.2c-0.3,0.9-0.5,1.8-0.5,3c0,2,0.5,3.6,1.5,4.8c1,1.2,2.4,1.8,4.1,1.8
		c1.2,0,2.3-0.3,3.2-0.8c0.9-0.5,1.7-1.4,2.4-2.6C408.5,480.9,409,481.8,409.7,482.3 M407.9,473.3c0,1.9-0.2,3.3-0.7,4.2
		c-0.5,0.9-1.3,1.3-2.3,1.3c-0.7,0-1.3-0.3-1.8-0.8c-0.5-0.5-0.8-1.2-0.8-1.9c0-1.4,1-3,3.1-4.7c1.1-0.9,2-1.7,2.6-2.3V473.3z
		 M383.5,466.2c0-2,0.3-3.5,0.8-4.4c0.6-1,1.4-1.4,2.5-1.4c0.7,0,1.2,0.2,1.5,0.7c0.3,0.5,0.5,1.2,0.5,2.1v14.2
		c0,0.9-0.1,1.5-0.4,1.8c-0.3,0.3-0.8,0.4-1.7,0.4v3h9.7v-3c-1,0-1.6-0.1-1.9-0.4c-0.3-0.3-0.4-0.8-0.4-1.8v-13.5
		c0-2.8-0.4-4.8-1.2-6c-0.8-1.2-2.1-1.8-3.9-1.8c-1.2,0-2.2,0.3-3.2,0.9c-0.9,0.6-1.8,1.6-2.7,2.9v-3.1h-7.4v3c1,0,1.6,0.1,1.9,0.4
		c0.3,0.2,0.4,0.8,0.4,1.8v15.4c0,0.9-0.1,1.5-0.4,1.8c-0.3,0.3-0.9,0.4-1.8,0.4v3h9.7v-3c-0.9,0-1.4-0.2-1.7-0.4
		c-0.3-0.2-0.4-0.8-0.4-1.8V466.2z M356.2,475.5c-0.6,0.9-0.9,1.9-0.9,3c0,1.1,0.3,2,0.8,2.8c0.5,0.8,1.4,1.4,2.5,2
		c-1.3,0.5-2.2,1.1-2.8,1.7c-0.6,0.6-0.9,1.3-0.9,2.1c0,1.4,0.8,2.6,2.5,3.5c1.7,0.9,3.9,1.3,6.8,1.3c3.4,0,6.1-0.7,7.9-2
		c1.8-1.3,2.7-3.2,2.7-5.7c0-1.2-0.2-2.2-0.6-3c-0.4-0.9-1-1.5-1.9-2.1c-0.6-0.4-2.4-0.7-5.2-0.9c-0.9-0.1-1.6-0.1-2.1-0.1
		c-2.4-0.2-4-0.4-4.7-0.7c-0.7-0.3-1-0.7-1-1.2c0-0.3,0.1-0.5,0.3-0.8c0.2-0.3,0.5-0.7,1-1.1c0.6,0.2,1.2,0.4,1.8,0.6
		c0.6,0.1,1.1,0.2,1.6,0.2c2.5,0,4.4-0.8,5.7-2.5c1.3-1.7,1.9-4.2,1.9-7.5c0-1.7-0.3-3.2-0.8-4.5c-0.5-1.2-1.3-2.2-2.3-2.9
		c0.4-0.8,0.8-1.4,1.3-1.8c0.5-0.4,1-0.6,1.5-0.6c0.1,0,0.3,0,0.6,0.1c0,0,0.1,0,0.1,0c-0.4,0.1-0.7,0.3-1,0.6
		c-0.2,0.3-0.3,0.7-0.3,1.1c0,0.6,0.2,1,0.5,1.4c0.3,0.3,0.8,0.5,1.4,0.5c0.7,0,1.2-0.2,1.6-0.7c0.4-0.4,0.6-1,0.6-1.8
		c0-1-0.3-1.8-1-2.4c-0.7-0.6-1.5-0.9-2.6-0.9c-0.9,0-1.7,0.3-2.6,0.8c-0.8,0.5-1.6,1.4-2.4,2.4c-0.5-0.2-1-0.3-1.4-0.4
		c-0.5-0.1-0.9-0.1-1.4-0.1c-2.2,0-4,0.9-5.4,2.7c-1.3,1.8-2,4.2-2,7.3c0,1.7,0.2,3.1,0.7,4.2c0.4,1.2,1.1,2.1,2.1,2.9
		C357.7,473.8,356.8,474.6,356.2,475.5 M368.7,484.6c0.3,0,0.5,0,0.6,0c0.8,0.1,1.4,0.3,1.7,0.5c0.3,0.2,0.4,0.6,0.4,1.1
		c0,0.9-0.6,1.6-1.7,2.1c-1.1,0.5-2.6,0.8-4.5,0.8c-2,0-3.6-0.3-4.7-0.8c-1.1-0.5-1.6-1.3-1.6-2.3c0-0.5,0.1-0.9,0.3-1.2
		c0.2-0.4,0.5-0.7,1-0.9C363.2,484.2,366,484.5,368.7,484.6 M361.9,470.6c-0.4-0.9-0.6-2.6-0.6-5c0-2.4,0.2-4.1,0.6-5.1
		c0.4-0.9,1-1.4,2-1.4c0.9,0,1.6,0.5,2,1.4c0.4,0.9,0.6,2.6,0.6,5.1c0,2.4-0.2,4.1-0.6,5c-0.4,0.9-1,1.4-2,1.4
		C362.9,471.9,362.3,471.5,361.9,470.6 M347.4,482.3c0.7,0.6,1.7,0.8,2.8,0.8c1.5,0,2.5-0.5,3.2-1.4c0.7-0.9,1-2.5,1-4.5v-1.7h-1.9
		c0,0.2,0,0.5,0,0.8c0,0.3,0,0.6,0,0.8c0,1.1-0.1,1.8-0.2,2.2c-0.1,0.4-0.4,0.6-0.7,0.6c-0.3,0-0.5-0.1-0.6-0.2
		c-0.1-0.2-0.2-0.5-0.2-1v-14.5c0-2.8-0.6-4.8-1.9-6.2c-1.3-1.4-3.2-2-5.8-2c-2.3,0-4.2,0.6-5.7,1.9c-1.5,1.3-2.2,2.9-2.2,4.9
		c0,1.2,0.3,2.1,0.9,2.7c0.6,0.7,1.5,1,2.5,1c0.9,0,1.6-0.2,2.1-0.7c0.5-0.5,0.8-1.2,0.8-2c0-0.9-0.2-1.6-0.6-2
		c-0.4-0.5-1-0.7-1.8-0.7c-0.3,0-0.5,0-0.6,0c-0.1,0-0.3,0-0.4,0.1c0.3-0.7,0.7-1.3,1.4-1.7c0.6-0.4,1.4-0.6,2.3-0.6
		c1.2,0,2.2,0.4,2.9,1.1c0.7,0.8,1.1,1.8,1.1,3.1c0,1.1-0.3,2-0.9,2.8c-0.6,0.8-1.6,1.6-3,2.4c-0.3,0.2-0.8,0.4-1.4,0.7
		c-1.8,0.9-3.1,1.7-4,2.5c-0.6,0.6-1.1,1.3-1.4,2.2c-0.3,0.9-0.5,1.8-0.5,3c0,2,0.5,3.6,1.5,4.8c1,1.2,2.4,1.8,4.1,1.8
		c1.2,0,2.3-0.3,3.2-0.8c0.9-0.5,1.7-1.4,2.4-2.6C346.1,480.9,346.6,481.8,347.4,482.3 M345.6,473.3c0,1.9-0.2,3.3-0.7,4.2
		c-0.5,0.9-1.3,1.3-2.3,1.3c-0.7,0-1.3-0.3-1.8-0.8c-0.5-0.5-0.8-1.2-0.8-1.9c0-1.4,1-3,3.1-4.7c1.1-0.9,2-1.7,2.6-2.3V473.3z
		 M319.1,457.1c-0.9-0.7-1.9-1.1-3.1-1.1c-1.1,0-2.2,0.3-3.1,1c-0.9,0.6-1.8,1.6-2.6,2.9v-3.1h-7.5v3c1,0,1.6,0.1,1.9,0.4
		c0.3,0.2,0.4,0.8,0.4,1.8v15.4c0,0.9-0.1,1.5-0.4,1.8c-0.3,0.3-0.9,0.4-1.8,0.4v3h9.5v-3c-0.8,0-1.3-0.1-1.5-0.4
		c-0.3-0.2-0.4-0.8-0.4-1.8v-11.1c0-1.9,0.3-3.4,0.8-4.4c0.5-1,1.4-1.5,2.5-1.5c0.7,0,1.2,0.2,1.6,0.7c0.4,0.5,0.5,1.2,0.5,2.1v14.2
		c0,0.9-0.1,1.5-0.4,1.7c-0.3,0.3-0.8,0.4-1.6,0.4v3h9.2l0-3c-0.8,0-1.3-0.1-1.6-0.4c-0.3-0.3-0.4-0.8-0.4-1.8v-11.1
		c0-1.9,0.3-3.4,0.8-4.4c0.5-1,1.4-1.5,2.5-1.5c0.7,0,1.2,0.2,1.6,0.7c0.4,0.5,0.5,1.2,0.5,2.1v14.2c0,0.9-0.1,1.5-0.4,1.7
		c-0.2,0.3-0.8,0.4-1.5,0.4l0,3h9.5v-3c-1,0-1.6-0.1-1.9-0.4c-0.3-0.3-0.4-0.8-0.4-1.8v-13.5c0-2.8-0.4-4.8-1.2-6
		c-0.8-1.2-2.1-1.8-3.9-1.8c-1.2,0-2.2,0.3-3.2,1c-1,0.7-1.8,1.7-2.6,3.1C320.6,458.8,320,457.8,319.1,457.1 M301.3,480.2
		c1.2-2,1.8-5.5,1.8-10.6c0-5.1-0.6-8.7-1.8-10.6c-1.2-2-3.4-2.9-6.4-2.9c-3,0-5.1,1-6.3,2.9c-1.2,2-1.8,5.5-1.8,10.6
		c0,5.2,0.6,8.7,1.8,10.7c1.2,2,3.3,2.9,6.3,2.9C297.9,483.2,300.1,482.2,301.3,480.2 M292.9,478.1c-0.4-1.1-0.6-3.9-0.6-8.5
		c0-4.5,0.2-7.4,0.6-8.5c0.4-1.1,1.1-1.6,2.1-1.6c1,0,1.6,0.5,2,1.6c0.4,1.1,0.5,3.9,0.5,8.5c0,4.6-0.2,7.4-0.5,8.5
		c-0.4,1.1-1,1.6-2,1.6C294,479.7,293.3,479.1,292.9,478.1 M269.6,448h1.8c2,0,3.4,0.5,4.1,1.4c0.7,0.9,1.1,2.6,1.1,4.9
		c0,2.3-0.4,4-1.2,5c-0.8,1-2.2,1.5-4.1,1.5h-1.7V448z M269.6,465c0.1,0,0.3,0,0.4,0c0.1,0,0.3,0,0.6,0c1.6,0,2.8,0.4,3.5,1.3
		c0.7,0.9,1.1,2.5,1.2,4.8c0,0.5,0,1.3,0.1,2.3c0.1,3.6,0.4,6.1,1.1,7.5c0.5,0.9,1,1.5,1.7,1.9c0.7,0.4,1.6,0.6,2.7,0.6
		c1.8,0,3.1-0.6,4-1.8c0.8-1.2,1.2-3.1,1.2-5.9v-1.6H284v2.6c0,0.7-0.1,1.2-0.4,1.6c-0.2,0.4-0.5,0.6-0.9,0.6
		c-0.8,0-1.2-1.5-1.4-4.4c0-0.7-0.1-1.2-0.1-1.5c-0.2-3.3-0.7-5.5-1.5-6.8c-0.8-1.3-2-2.1-3.7-2.5c2.1-0.4,3.7-1.4,4.9-3.1
		c1.1-1.7,1.7-3.8,1.7-6.6c0-3.4-0.9-5.9-2.6-7.5c-1.8-1.6-4.5-2.4-8.2-2.4h-11.1v3.8c1,0,1.6,0.2,2,0.6c0.4,0.4,0.6,1.1,0.6,2.2
		v25.1c0,1-0.2,1.8-0.6,2.2c-0.4,0.4-1.1,0.6-2,0.6v3.8h11.7v-3.8h-0.2c-1,0-1.6-0.2-2-0.6c-0.4-0.4-0.6-1.1-0.6-2.2V465z
		 M261.1,467.1h-7.7v4.3h7.7V467.1z M246.3,482.3c0.7,0.6,1.7,0.8,2.8,0.8c1.5,0,2.5-0.5,3.2-1.4c0.7-0.9,1-2.5,1-4.5v-1.7h-1.9
		c0,0.2,0,0.5,0,0.8c0,0.3,0,0.6,0,0.8c0,1.1-0.1,1.8-0.2,2.2c-0.1,0.4-0.4,0.6-0.7,0.6c-0.3,0-0.5-0.1-0.6-0.2
		c-0.1-0.2-0.2-0.5-0.2-1v-14.5c0-2.8-0.6-4.8-1.9-6.2c-1.3-1.4-3.2-2-5.8-2c-2.3,0-4.2,0.6-5.7,1.9c-1.5,1.3-2.2,2.9-2.2,4.9
		c0,1.2,0.3,2.1,0.9,2.7c0.6,0.7,1.5,1,2.5,1c0.9,0,1.6-0.2,2.1-0.7c0.5-0.5,0.8-1.2,0.8-2c0-0.9-0.2-1.6-0.6-2
		c-0.4-0.5-1-0.7-1.8-0.7c-0.3,0-0.5,0-0.6,0c-0.1,0-0.3,0-0.4,0.1c0.3-0.7,0.7-1.3,1.4-1.7c0.6-0.4,1.4-0.6,2.3-0.6
		c1.2,0,2.2,0.4,2.9,1.1c0.7,0.8,1.1,1.8,1.1,3.1c0,1.1-0.3,2-0.9,2.8c-0.6,0.8-1.6,1.6-3,2.4c-0.3,0.2-0.8,0.4-1.4,0.7
		c-1.8,0.9-3.1,1.7-4,2.5c-0.6,0.6-1.1,1.3-1.4,2.2c-0.3,0.9-0.5,1.8-0.5,3c0,2,0.5,3.6,1.5,4.8c1,1.2,2.4,1.8,4.1,1.8
		c1.2,0,2.3-0.3,3.2-0.8c0.9-0.5,1.7-1.4,2.4-2.6C245.1,480.9,245.6,481.8,246.3,482.3 M244.5,473.3c0,1.9-0.2,3.3-0.7,4.2
		c-0.5,0.9-1.3,1.3-2.3,1.3c-0.7,0-1.3-0.3-1.8-0.8c-0.5-0.5-0.8-1.2-0.8-1.9c0-1.4,1-3,3.1-4.7c1.1-0.9,2-1.7,2.6-2.3V473.3z
		 M225.6,453.6c0.6,0.6,1.4,0.9,2.3,0.9c0.9,0,1.6-0.3,2.2-0.9c0.6-0.6,0.9-1.3,0.9-2.2c0-0.9-0.3-1.6-0.9-2.2
		c-0.6-0.6-1.3-0.9-2.2-0.9c-0.8,0-1.6,0.3-2.2,0.9c-0.6,0.6-1,1.4-1,2.2C224.7,452.3,225,453,225.6,453.6 M230.8,456.7h-7.7v3
		c1,0,1.6,0.1,1.9,0.4c0.3,0.2,0.4,0.8,0.4,1.8v15.4c0,0.9-0.1,1.5-0.4,1.8c-0.3,0.3-0.9,0.4-1.8,0.4v3h10v-3c-1,0-1.6-0.1-1.8-0.4
		c-0.3-0.2-0.4-0.8-0.4-1.8V456.7z M219.6,447.6h-7.7v3c1,0,1.6,0.1,1.9,0.4c0.3,0.2,0.4,0.8,0.4,1.8v24.5c0,0.9-0.1,1.5-0.4,1.8
		c-0.3,0.3-0.9,0.4-1.8,0.4v3h10v-3c-1,0-1.6-0.1-1.9-0.4c-0.3-0.2-0.4-0.8-0.4-1.8V447.6z M202.9,453.6c0.6,0.6,1.4,0.9,2.3,0.9
		c0.9,0,1.6-0.3,2.2-0.9c0.6-0.6,0.9-1.3,0.9-2.2c0-0.9-0.3-1.6-0.9-2.2c-0.6-0.6-1.3-0.9-2.2-0.9c-0.8,0-1.6,0.3-2.2,0.9
		c-0.6,0.6-1,1.4-1,2.2C201.9,452.3,202.3,453,202.9,453.6 M208.1,456.7h-7.7v3c1,0,1.6,0.1,1.9,0.4c0.3,0.2,0.4,0.8,0.4,1.8v15.4
		c0,0.9-0.1,1.5-0.4,1.8c-0.3,0.3-0.9,0.4-1.8,0.4v3h10v-3c-1,0-1.6-0.1-1.8-0.4c-0.3-0.2-0.4-0.8-0.4-1.8V456.7z M184.2,457.1
		c-0.9-0.7-1.9-1.1-3.1-1.1c-1.1,0-2.2,0.3-3.1,1c-0.9,0.6-1.8,1.6-2.6,2.9v-3.1h-7.5v3c1,0,1.6,0.1,1.9,0.4
		c0.3,0.2,0.4,0.8,0.4,1.8v15.4c0,0.9-0.1,1.5-0.4,1.8c-0.3,0.3-0.9,0.4-1.8,0.4v3h9.5v-3c-0.8,0-1.3-0.1-1.5-0.4
		c-0.3-0.2-0.4-0.8-0.4-1.8v-11.1c0-1.9,0.3-3.4,0.8-4.4c0.5-1,1.4-1.5,2.5-1.5c0.7,0,1.2,0.2,1.6,0.7c0.4,0.5,0.5,1.2,0.5,2.1v14.2
		c0,0.9-0.1,1.5-0.4,1.7c-0.3,0.3-0.8,0.4-1.6,0.4v3h9.2l0-3c-0.8,0-1.3-0.1-1.6-0.4c-0.3-0.3-0.4-0.8-0.4-1.8v-11.1
		c0-1.9,0.3-3.4,0.8-4.4c0.5-1,1.4-1.5,2.5-1.5c0.7,0,1.2,0.2,1.6,0.7c0.4,0.5,0.5,1.2,0.5,2.1v14.2c0,0.9-0.1,1.5-0.4,1.7
		c-0.2,0.3-0.8,0.4-1.5,0.4l0,3h9.5v-3c-1,0-1.6-0.1-1.9-0.4c-0.3-0.3-0.4-0.8-0.4-1.8v-13.5c0-2.8-0.4-4.8-1.2-6
		c-0.8-1.2-2.1-1.8-3.9-1.8c-1.2,0-2.2,0.3-3.2,1c-1,0.7-1.8,1.7-2.6,3.1C185.7,458.8,185.1,457.8,184.2,457.1 M166.6,482.4v-14.6
		h-2.9c-0.1,4.3-0.7,7.2-1.8,8.7c-1.1,1.5-3.2,2.2-6.4,2.2h-1.7v-14h0.7c1.4,0,2.5,0.4,3.1,1.2c0.6,0.8,0.9,2.2,0.9,4.1v0.2h2.7v-15
		h-2.7v0.3c0,2-0.3,3.3-0.9,4.1c-0.6,0.8-1.6,1.2-3.1,1.2h-0.7V448h1.2c3.1,0,5.2,0.6,6.3,1.8c1.1,1.2,1.7,3.6,1.9,7h2.9v-12.6
		h-21.1v3.8c1,0,1.6,0.2,2,0.6c0.4,0.4,0.6,1.1,0.6,2.2v25.1c0,1-0.2,1.8-0.6,2.2c-0.4,0.4-1.1,0.6-2,0.6v3.8H166.6z M131.8,464
		c0-1.7,0.2-3,0.6-3.8c0.4-0.8,1-1.2,1.9-1.2c0.9,0,1.5,0.4,1.9,1.1c0.4,0.7,0.6,2,0.6,3.8v3.1h-5V464z M141.7,470.1v-2.2v-0.8
		c0-2-0.1-3.4-0.2-4.4c-0.1-0.9-0.4-1.8-0.7-2.5c-0.7-1.4-1.5-2.4-2.6-3.1c-1.1-0.7-2.3-1.1-3.7-1.1c-2.8,0-4.9,1.1-6.2,3.4
		c-1.4,2.2-2,5.7-2,10.4c0,4.9,0.6,8.3,1.9,10.3c1.3,2,3.4,3,6.4,3c2.4,0,4.2-0.8,5.4-2.4c1.2-1.6,1.8-4,1.8-7.1c0-0.1,0-0.3,0-0.5
		c0-0.3,0-0.5,0-0.6h-3.4c0,2.6-0.2,4.5-0.7,5.6c-0.5,1.1-1.3,1.7-2.4,1.7c-1.2,0-2.1-0.6-2.6-1.8c-0.5-1.2-0.8-3.4-0.8-6.5v-1.4
		H141.7z M113.2,466.2c0-2,0.3-3.5,0.8-4.4c0.6-1,1.4-1.4,2.5-1.4c0.7,0,1.2,0.2,1.5,0.7c0.3,0.5,0.5,1.2,0.5,2.1v14.2
		c0,0.9-0.1,1.5-0.4,1.8c-0.3,0.3-0.8,0.4-1.7,0.4v3h9.7v-3c-1,0-1.6-0.1-1.9-0.4c-0.3-0.3-0.4-0.8-0.4-1.8v-13.5
		c0-2.8-0.4-4.8-1.2-6c-0.8-1.2-2.1-1.8-3.9-1.8c-1.2,0-2.2,0.3-3.2,0.9c-1,0.6-1.8,1.6-2.7,2.9v-3.1h-7.4v3c1,0,1.6,0.1,1.9,0.4
		c0.3,0.2,0.4,0.8,0.4,1.8v15.4c0,0.9-0.1,1.5-0.4,1.8c-0.3,0.3-0.9,0.4-1.8,0.4v3h9.7v-3c-0.9,0-1.4-0.2-1.7-0.4
		c-0.3-0.2-0.4-0.8-0.4-1.8V466.2z M103.6,480.2c1.2-2,1.8-5.5,1.8-10.6c0-5.1-0.6-8.7-1.8-10.6c-1.2-2-3.4-2.9-6.4-2.9
		c-3,0-5.1,1-6.3,2.9c-1.2,2-1.8,5.5-1.8,10.6c0,5.2,0.6,8.7,1.8,10.7c1.2,2,3.3,2.9,6.3,2.9C100.2,483.2,102.4,482.2,103.6,480.2
		 M95.2,478.1c-0.4-1.1-0.6-3.9-0.6-8.5c0-4.5,0.2-7.4,0.6-8.5c0.4-1.1,1.1-1.6,2.1-1.6c1,0,1.6,0.5,2,1.6c0.4,1.1,0.5,3.9,0.5,8.5
		c0,4.6-0.2,7.4-0.5,8.5c-0.4,1.1-1,1.6-2,1.6C96.3,479.7,95.6,479.1,95.2,478.1 M81.5,453.6c0.6,0.6,1.4,0.9,2.3,0.9
		c0.9,0,1.6-0.3,2.2-0.9c0.6-0.6,0.9-1.3,0.9-2.2c0-0.9-0.3-1.6-0.9-2.2c-0.6-0.6-1.3-0.9-2.2-0.9c-0.8,0-1.6,0.3-2.2,0.9
		c-0.6,0.6-1,1.4-1,2.2C80.6,452.3,80.9,453,81.5,453.6 M86.8,456.7h-7.7v3c1,0,1.6,0.1,1.9,0.4c0.3,0.2,0.4,0.8,0.4,1.8v15.4
		c0,0.9-0.1,1.5-0.4,1.8c-0.3,0.3-0.9,0.4-1.8,0.4v3h10v-3c-0.9,0-1.6-0.1-1.8-0.4c-0.3-0.2-0.4-0.8-0.4-1.8V456.7z M59.6,475.5
		c-0.6,0.9-0.9,1.9-0.9,3c0,1.1,0.3,2,0.8,2.8c0.5,0.8,1.4,1.4,2.5,2c-1.3,0.5-2.2,1.1-2.8,1.7c-0.6,0.6-0.9,1.3-0.9,2.1
		c0,1.4,0.8,2.6,2.5,3.5c1.7,0.9,3.9,1.3,6.8,1.3c3.4,0,6.1-0.7,7.9-2c1.8-1.3,2.7-3.2,2.7-5.7c0-1.2-0.2-2.2-0.6-3
		c-0.4-0.9-1-1.5-1.9-2.1c-0.6-0.4-2.4-0.7-5.2-0.9c-0.9-0.1-1.6-0.1-2.1-0.1c-2.4-0.2-4-0.4-4.7-0.7c-0.7-0.3-1-0.7-1-1.2
		c0-0.3,0.1-0.5,0.3-0.8c0.2-0.3,0.5-0.7,1-1.1c0.6,0.2,1.2,0.4,1.8,0.6c0.6,0.1,1.1,0.2,1.6,0.2c2.5,0,4.4-0.8,5.7-2.5
		c1.3-1.7,1.9-4.2,1.9-7.5c0-1.7-0.3-3.2-0.8-4.5c-0.5-1.2-1.3-2.2-2.3-2.9c0.4-0.8,0.8-1.4,1.3-1.8c0.5-0.4,1-0.6,1.5-0.6
		c0.1,0,0.3,0,0.6,0.1c0,0,0.1,0,0.1,0c-0.4,0.1-0.7,0.3-1,0.6c-0.2,0.3-0.3,0.7-0.3,1.1c0,0.6,0.2,1,0.5,1.4
		c0.3,0.3,0.8,0.5,1.4,0.5c0.7,0,1.2-0.2,1.6-0.7c0.4-0.4,0.6-1,0.6-1.8c0-1-0.3-1.8-1-2.4c-0.7-0.6-1.5-0.9-2.6-0.9
		c-0.9,0-1.7,0.3-2.6,0.8c-0.8,0.5-1.6,1.4-2.4,2.4c-0.5-0.2-1-0.3-1.4-0.4c-0.5-0.1-0.9-0.1-1.4-0.1c-2.2,0-4,0.9-5.3,2.7
		c-1.3,1.8-2,4.2-2,7.3c0,1.7,0.2,3.1,0.7,4.2c0.4,1.2,1.1,2.1,2.1,2.9C61.1,473.8,60.2,474.6,59.6,475.5 M72.1,484.6
		c0.3,0,0.5,0,0.6,0c0.8,0.1,1.4,0.3,1.7,0.5c0.3,0.2,0.4,0.6,0.4,1.1c0,0.9-0.6,1.6-1.7,2.1c-1.1,0.5-2.6,0.8-4.5,0.8
		c-2,0-3.6-0.3-4.7-0.8c-1.1-0.5-1.6-1.3-1.6-2.3c0-0.5,0.1-0.9,0.3-1.2c0.2-0.4,0.5-0.7,1-0.9C66.5,484.2,69.4,484.5,72.1,484.6
		 M65.3,470.6c-0.4-0.9-0.6-2.6-0.6-5c0-2.4,0.2-4.1,0.6-5.1c0.4-0.9,1-1.4,2-1.4c0.9,0,1.6,0.5,2,1.4c0.4,0.9,0.6,2.6,0.6,5.1
		c0,2.4-0.2,4.1-0.6,5c-0.4,0.9-1,1.4-2,1.4C66.3,471.9,65.7,471.5,65.3,470.6 M48,464c0-1.7,0.2-3,0.6-3.8c0.4-0.8,1-1.2,1.9-1.2
		c0.9,0,1.5,0.4,1.9,1.1c0.4,0.7,0.6,2,0.6,3.8v3.1h-5V464z M58,470.1v-2.2v-0.8c0-2-0.1-3.4-0.2-4.4c-0.1-0.9-0.4-1.8-0.7-2.5
		c-0.7-1.4-1.5-2.4-2.6-3.1c-1.1-0.7-2.3-1.1-3.7-1.1c-2.8,0-4.9,1.1-6.2,3.4c-1.4,2.2-2,5.7-2,10.4c0,4.9,0.6,8.3,1.9,10.3
		c1.3,2,3.4,3,6.4,3c2.4,0,4.2-0.8,5.4-2.4c1.2-1.6,1.8-4,1.8-7.1c0-0.1,0-0.3,0-0.5c0-0.3,0-0.5,0-0.6h-3.4c0,2.6-0.2,4.5-0.7,5.6
		c-0.5,1.1-1.3,1.7-2.4,1.7c-1.2,0-2.1-0.6-2.6-1.8c-0.5-1.2-0.8-3.4-0.8-6.5v-1.4H58z M25.4,448h1.8c2,0,3.4,0.5,4.1,1.4
		c0.7,0.9,1.1,2.6,1.1,4.9c0,2.3-0.4,4-1.2,5c-0.8,1-2.2,1.5-4.1,1.5h-1.7V448z M25.4,465c0.1,0,0.3,0,0.4,0c0.1,0,0.3,0,0.6,0
		c1.6,0,2.8,0.4,3.5,1.3c0.7,0.9,1.1,2.5,1.2,4.8c0,0.5,0,1.3,0,2.3c0.1,3.6,0.4,6.1,1.1,7.5c0.5,0.9,1,1.5,1.7,1.9
		c0.7,0.4,1.6,0.6,2.7,0.6c1.8,0,3.1-0.6,4-1.8c0.8-1.2,1.2-3.1,1.2-5.9v-1.6h-2.1v2.6c0,0.7-0.1,1.2-0.4,1.6
		c-0.2,0.4-0.5,0.6-0.9,0.6c-0.8,0-1.2-1.5-1.4-4.4c0-0.7-0.1-1.2-0.1-1.5c-0.2-3.3-0.7-5.5-1.5-6.8c-0.8-1.3-2-2.1-3.7-2.5
		c2.1-0.4,3.7-1.4,4.9-3.1c1.1-1.7,1.7-3.8,1.7-6.6c0-3.4-0.9-5.9-2.6-7.5c-1.8-1.6-4.5-2.4-8.2-2.4H16.5v3.8c1,0,1.6,0.2,2,0.6
		c0.4,0.4,0.6,1.1,0.6,2.2v25.1c0,1-0.2,1.8-0.6,2.2c-0.4,0.4-1.1,0.6-2,0.6v3.8h11.7v-3.8H28c-1,0-1.6-0.2-2-0.6
		c-0.4-0.4-0.6-1.1-0.6-2.2V465z"/>
</g>
</svg>
